<svg id="Layer_1" data-name="Layer 1" xmlns="http://www.w3.org/2000/svg" viewBox="0 0 200 200"><defs><style>.cls-1{fill:#ffcf00;}.cls-2{fill:#ffb700;}.cls-3{fill:#e0e0e0;}</style></defs><circle class="cls-1" cx="100" cy="100" r="68.81"/><circle class="cls-2" cx="100" cy="100" r="57.69"/><path class="cls-3" d="M130.55,115.19a145.44,145.44,0,0,1-5.77,16.58c-2.67.62-11.12,2.68-19,2.68-27.7,0-39.14-17.82-39.14-34.2,0-21.32,16.28-35.74,41-35.74,9,0,16.89,2.17,19.46,2.47.52,4.84,1.24,12.47,2,17L125,84.7c-2.16-8-5.25-11.85-10.71-14a26,26,0,0,0-9-1.44c-14.94,0-22.46,12.46-22.46,28.63,0,18.85,9.69,31.62,23.8,31.62,8.65,0,14.42-4.53,20-15.86Z"/></svg>